P3
3
2
255
54
54
54
182
182
182
18
18
18
64
64
64
172
172
172
39
39
39
