P3
3
2
255
54
54
54
162
162
162
29
29
29
44
44
44
172
172
172
8
8
8
