P3
3
2
255
255
0
0
100
50
100
0
255
0
100
200
100
0
0
255
10
50
10
