P3
# Created by GIMP version 2.10.30 PNM plug-in
3 2
255
255
0
0
0
255
0
0
0
255
100
50
100
100
200
100
10
50
10
