P3
3
2
255
83
51
19
69
53
38
19
19
19
51
95
51
55
94
55
19
31
19
