P3
3
2
255
0
0
0
255
255
255
0
0
0
50
50
50
200
200
200
50
50
50
