P3
3
2
255
255
50
50
50
255
50
50
50
255
150
100
150
150
250
150
60
100
60
